<?xml version="1.0" encoding="UTF-8"?>
<svg version="1.1" viewBox="0 0 1144 1144" width="286" height="286" xmlns="http://www.w3.org/2000/svg">
<path transform="translate(530)" d="m0 0h84l51 7 36 7 31 8 37 12 32 13 26 12 19 10 21 12 14 9 15 10 17 12 14 11 11 9 13 11 12 11 33 33 7 8 11 13 8 10 16 21 16 24 15 25 13 24 14 29 14 35 13 40 8 32 7 39 6 46v74l-5 43-6 35-7 32-9 30-10 29-12 29-16 33-12 22-15 24-9 13-12 17-20 25-12 14-7 7-7 8-23 23-8 7-11 10-11 9-18 14-18 13-25 16-21 12-26 14-31 14-28 11-38 12-28 7-37 7-42 6-9 1h-77l-39-5-41-7-30-7-30-9-26-9-29-12-25-12-23-12-25-15-25-17-12-9-13-10-13-11-11-9-8-8-8-7-26-26-7-8-12-14-13-16-14-19-16-24-12-20-13-24-8-16-11-24-10-26-12-36-8-31-7-36-5-35-2-18v-83l7-51 7-35 8-31 12-36 9-24 11-24 8-16 12-23 12-20 10-15 13-19 13-17 14-17 12-14 18-18 4-5 8-7 13-13 11-9 13-11 20-15 18-13 19-12 19-11 22-12 29-14 33-13 36-12 36-9 37-7z"/>
<path transform="translate(508,284)" d="m0 0h3l7 10 7 9 7 2v-6l2-3 4 2 1 9 19 5 9 2 7 6 6 8 4-2 4-4h3l3 5 5-2 5-4 9 1 7 5h3l4-7 4 1 1 8 13-2 15-6 17-6v-9l5-1 2 2 1 7 10-5 13-11h3l-1 5-8 7-10 11-1 23-4 12-1 11 1 3 31 4 19 5 24 10 18 10 15 11 12 11 10 10 8 10 13 21 8 17 6 18 4 19 2 17v19l-3 22-6 23-6 15-11 21-14 19-12 13-11 10-18 12-14 8-14 6-25 8-13 3-8 1h-180l-6-2v-339l2-1h13l-4-13-1-5-1-19-1-2v-9l1-9-6-12-7-8-4-6z" fill="#9E2769"/>
<path transform="translate(290,400)" d="m0 0h33l17 2 19 5 16 8 9 7 8 8 7 11 5 14 3 14 2 24v42h-89l-1-1-1-57-2-11-5-5-2-1h-8l-5 3-4 5-2 6v212l4 9 5 4 2 1h9l6-4 3-4 2-10v-64l-16-1-1-1v-48l1-1h93l13 1 1 77v108l-2 1-37 1h-16l-5-3-4-15v-5l-5 3-10 9-15 9-16 6-18 3h-14l-16-3-13-5-10-7-10-9-7-10-6-12-6-18-3-18-1-46v-133l2-23 3-14 6-17 7-13 9-10 13-9 16-8 15-4z" fill="#9F276A"/>
<path transform="translate(541,374)" d="m0 0h40l89 1 4 1h26l14 2 12 4 3 2-2 5-8 6-11 11-9 11-14 18-5 7h-2v3h-2l-1 7h3v2h-6l-6 1-4-2h-6v7l-5 4-4 5-5 4 1 10 12 30 2 6-1 5-2 3h-2l1 6 9 9 5 4 5 6-14 5-16 6v4l6 5 6 11 9 15 1 10 11-3 12-1 9 39 12 54h11l13-1v2l-13 6-15 4-11 1h-134v-20l11 3 4 1h18l4-4 15-28 7-11 3-4-1-4-6-6-5-3-5-5-3-5-3-2-3-7-3-1-2 5-6 8-3 3-1 3h-2v3h-2v3l-2 1-2 4h-2l-1 4-2 1-2 4-4 3h-2v-133l2-2 2 6v5l1 4h3l3 12 7 3 9 1v1l-8 1-5-1 3 15 6 18 8 15 4 6 5 10 9 11 12 11 7 5h7v-9l9-10 6-4-1-8-4-7 1-3 5 8 2 6 4-2 3-1v-10l-2-9-6-11-11-13-8-10-10-10-7-6-4-1v-2l21-5h4v-2l13-6 3-4-1-6-6-16-5-13-2-6-6-2-10-5-9-4-1 4-7 3-28 5-12 5-3 4h-2l-1-2-1-91-5-12-11-12z"/>
<path transform="translate(770,419)" d="m0 0 4 1 8 10 10 17 8 17 8 24 5 28 1 8v37l-3 20-5 22-4 12-7 16-10 18-12 17-9 9-5 6-4 1-5-19-12-34-8-23-4-11v-4l3-4v-12h-2v-11l-4-13-1-2v-5l-7-2-7-1 4-4-1-14-5-21-8-23-5-8-7-9v-2l5 1 8 9 5 6 4-1 11-10 7-6h3l2-4 12-11 13-11 3-3h3l2-6z" fill="#010000"/>
<path transform="translate(656,452)" d="m0 0h6l4 2 10-1 2 1 1-2 9 7-2 1 9 12 6 12 8 25 4 21v7l-2 3 10 2 2 2v6l2 3 3 11v9l-1 2h2l1 2v10l-4 5 2 5 7 21 14 40 5 15 2 10-8 7-14 7-15 1h-11l-3-9-9-40-7-32-2-8v-5l-16 3-7 1-3-12-9-15-5-9-7-6 2-4 19-7 10-4-5-5-12-11-3-4 1-4 4-4-1-7-12-31-2-7v-5l8-7 4-5 2-1v-7z" fill="#7C4638"/>
<path transform="translate(525,116)" d="m0 0h70l30 4 43 8 1 1v6h-9l-25-5-31-4-12-1-31-1h-19l-24 1-32 4-25 5-21 5-38 12-29 12-32 16-21 12-17 11-17 12-16 13-14 12-15 14-16 16-1 2h-2l-2 4-4 5h-2l-2 4-9 11-10 13-9 13-13 20-9 16-11 21-12 27-7 18-6 20-10 41-4 23-3 26-1 18v47l2 33 4 27 6 28 8 28 7 21 9 21 12 26 12 22 14 22 8 12 20 26 11 13 5 5 9 10 17 17 8 7 3 2v2l4 2 11 9 17 13 18 12 19 12 11 6 22 11 18 8 17 7 21 7 20 6 7 2v5l-1 1h-8l-26-8-31-11-30-14-22-12-17-10-13-9-18-13-9-7-15-13-10-8v-2l-4-2-29-29-7-9-13-15-8-11-10-14-13-20-11-19-12-24-5-12-8-19-8-22-8-29-5-20-4-23-3-21-2-46v-13l2-38 3-21 3-18 4-19 10-36 9-25 13-30 11-22 14-24 22-33 13-16 11-14 15-15 7-8 12-11 15-14 14-11 12-9 17-12 20-12 21-12 30-14 28-11 25-8 13-4 28-6 27-4 15-2z" fill="#C51788"/>
<path transform="translate(631,535)" d="m0 0h5l-4 2-18 4h-3v2l5 1 15 14 9 10 14 18 5 11 1 6v8l-5 5h-4l-4-9-2-4 2 5 3 7v5l-10 8-5 6v9l-1 1h-7l-10-8-12-11-9-12-6-12-8-14-6-16-3-12v-7h8l-10-3-2-4 5 3 9 1 13-4 16-6z" fill="#5B3D35"/>
<path transform="translate(137,405)" d="m0 0 1 3-6 15-6 20-10 41-4 23-3 26-1 18v47l2 33 4 27 6 28 8 28 7 21 9 21 12 26 12 22 14 22 8 12 20 26 11 13 5 5 9 10 17 17 8 7 3 2v2l4 2 11 9 17 13 18 12 19 12 11 6 22 11 18 8 17 7 21 7 20 6 7 2v5l-1 1h-8l-26-8-31-11-30-14-22-12-17-10-13-9-18-13-9-7-15-13-10-8v-2l-4-2-29-29-7-9-13-15-8-11-10-14-13-20-11-19-12-24-5-12-8-19-8-22-8-29-5-20-4-23-3-21-2-46v-13l2-38 3-21 3-18 4-19 10-36 7-19 1 4-9 27-8 31-2 10-2 13-2 12-1 14-2 12-1 14v36l1 16 1 3v-54l2-9 2-29 2-7 2-18 1-4h2l1-12 2-5 3-15 2-7 5-17 4-12 4-9z" fill="#CB158C"/>
<path transform="translate(656,452)" d="m0 0h6l4 2 10-1 2 1 1-2 9 7-2 1 9 12 6 12 8 25 4 21v7l-2 3 10 2 2 2v7l-21 8-10 2 1-3 17-7 11-3v-3h-13l-12 2-15 4-36 12-4 1 3-3 23-8 4-2-5-5-12-11-3-4 1-4 4-4-1-7-12-31-2-7v-5l8-7 4-5 2-1v-7z" fill="#7C4638"/>
<path transform="translate(613,472)" d="m0 0 4 1 12 5 9 5 6 14 3 8 5 13 1 6-5 6-12 5-24 5-24 9-9 1-7-2-3-3-3-10-1-1v-9l24-8 6-3-7 1-22 8-3-1-1-9 6-5 22-10 2-2-9 3-15 6-5-1-1-3v-9l4-5 11-4 32-6 3-1z" fill="#F7CFB3"/>
<path transform="translate(567,390)" d="m0 0h18l15 2 14 7 5 4-2 21-2 28-2 10-1 10-5 4 2 2-32 6-9 3v-2h-2l-2-9v-81l1-4z" fill="#5B3D35"/>
<path transform="translate(730,387)" d="m0 0 7 1 15 10 12 11 6 7-2 4-6 10-5 3-11 10-16 14-1 2-5 3-14 12-3 3-4-1-12-14-12-9-4-1-1-4 2-3h2v-3l5-5 14-19 9-10 7-8 9-9z" fill="#F6CEB2"/>
<path transform="translate(708,544)" d="m0 0h13l1 4-8 3-12 4-9 4-1 2 19-6 9-4h4l4 13v9l-1 2h2l1 2v10l-6 5-17 6-26 6h-6v2l-7 2h-4l-3-12-9-15-5-9-7-6v-2l19-7 22-7 15-4z" fill="#B97D63"/>
<path transform="translate(592,613)" d="m0 0 4 1 2 4v3l4 2 6 8 3 3 5 3 6 6-1 4-9 14-9 17-3 3-6 10-1 1h-19l-15-5-1-1v-27l5-7 2-1 2-4 2-1 1-3 2-1 2-4h2v-3h2v-3h2l1-4h2l2-5z" fill="#B77C62"/>
<path transform="translate(746,737)" d="m0 0h29l7 3 5 4 2 5v48l-3 5-6 4-3 1-23 1-8-1-1-38v-30z" fill="#9D2768"/>
<path transform="translate(572,737)" d="m0 0h19l12 1 7 5 2 4 1 8v40l-2 5-5 5-7 2h-28l-1-1v-68z" fill="#9D2769"/>
<path transform="translate(832,735)" d="m0 0 11 2 5 3 5 8v8l-4 2h-8l-5-3-2-6h-4l1 8 8 7 8 6 5 7 2 7v7l-3 9-7 7-6 2h-13l-7-4-4-6-2-8v-8l2-2h13l3 3v12l5-1v-9l-7-8-8-6-6-7-2-6v-10l3-6 7-6z" fill="#9D2769"/>
<path transform="translate(697,737)" d="m0 0h20l5 2v12l-2 1-9 1v9l1 1 7 1 2 2v11l-10 2v12l10 2 2 2v11l-1 1h-30l-1-1v-67z" fill="#9B2867"/>
<path transform="translate(644,737)" d="m0 0 23 1 1 1v9l-2 4-10 1v9l10 3 1 1v10l-4 2-7 1v13h9l3 2v13h-30l-1-1-1-66 1-2z" fill="#9D2769"/>
<path transform="translate(552,317)" d="m0 0h12l6 3 7 8 3 6 1 10-1 7v9l1 2v8l-1 1h-34l-2-1v-14l1-5v-25l3-7z"/>
<path transform="translate(659,325)" d="m0 0 14 1 1 5-2 8 1 9v15l-1 8h-37l-1-1-1-21-1-13 2-4 17-4z"/>
<path transform="translate(137,405)" d="m0 0 1 3-6 15-6 20-10 41-4 23-3 26-1 18v47l2 33 4 27 6 28 8 28 7 21 9 21 12 26 12 22 10 16-1 2-6-9-10-17-6-10-11-24-7-15-7-18-6-18-7-26-5-21-4-22-2-17v-10h-3l2 27 3 12 1 12 10 40 4 13 3 9 10 25 4 9-1 3-10-22-9-25-8-29-5-20-4-23-3-21-2-46v-13l2-38 3-21 3-18 4-19 10-36 7-19 1 4-9 27-8 31-2 10-2 13-2 12-1 14-2 12-1 14v36l1 16 1 3v-54l2-9 2-29 2-7 2-18 1-4h2l1-12 2-5 3-15 2-7 5-17 4-12 4-9z" fill="#9C2868"/>
<path transform="translate(380,329)" d="m0 0 8 1 8 4 5 7 1 4v17l-4 9-8 6-3 1h-9l-8-4-6-8-1-3v-17l3-8 5-6z"/>
<path transform="translate(301,329)" d="m0 0 8 1 7 4 5 6 2 7v13l-4 10-7 6-5 2h-7l-8-3-7-8-1-3v-20l4-8 6-5z"/>
<path transform="translate(447,330)" d="m0 0h15l9 3 6 5 3 7v16l-3 7-5 5-5 3-13 2h-6l-2-1v-46z"/>
<path transform="translate(606,323)" d="m0 0 6 1 5 3v2l3 1 3 6-1 16-1 15-1 4h-28l-1-11v-24l7-8z"/>
<path transform="translate(525,116)" d="m0 0h70l30 4 43 8 1 1v6h-9l-25-5-31-4-12-1-31-1h-19l-24 1-32 4-25 5-21 5-38 12-22 9-3-1 13-6 40-14 16-4 26-6 21-4 3-1 11-1h10v-2l8-1h64l1 2 29 3h10l8 3 11 1 3-1-6-2-18-3-23-3-23-2h-46l-35 3-27 4-20 4-7 2-8 1v2l-14 3-6 2-7 3-11 2v2l-10 3-8 3h-2v2l-7 2 1 2-9 2v3h-9v3l-8 1-1 3-7 1-1 2-6 3-6 2 3-3 22-12 24-11 28-11 25-8 13-4 28-6 27-4 15-2z" fill="#9F276A"/>
<path transform="translate(440,324)" d="m0 0h22l12 3 8 6 4 6 3 11v7l-3 10-4 6-8 7-8 3-5 1h-21l-2-2-1-4v-50l1-3zm7 6-1 1v46l2 1 15-1 8-3 5-4 3-5 1-4v-16l-4-8-7-5-7-2z" fill="#9D2769"/>
<path transform="translate(535,117)" d="m0 0h46l41 4 15 3 17 3-3 2-4 1-14-2-5-2h-9l-29-3-2-2h-71v2l-21 2-42 9-18 5-12 3-26 9-20 8-15 7-12 6-2-1 1-2h-2v-2l2-1h6v-3l2-1h7v-3l7-2 3-3h5v-2l15-6h5v-2l11-3 7-3 13-4h7v-2l14-3 6-2 28-5 23-3z" fill="#D21292"/>
<path transform="translate(296,324)" d="m0 0h15l8 4 5 5 5 8 1 3v18l-4 10-7 8-7 4-4 1h-11l-8-4-6-5-6-9-2-9v-8l2-9 6-9 7-6zm5 5-9 3-6 7-2 5v20l4 7 6 5 6 2h7l8-4 5-5 3-9v-13l-3-8-5-6-6-3z" fill="#9E2769"/>
<path transform="translate(375,324)" d="m0 0h16l8 4 7 8 4 9v15l-4 11-8 9-8 4-4 1h-7l-9-3-9-8-5-10-1-3v-13l3-10 7-9 6-4zm5 5-9 3-6 8-2 6v17l4 8 8 6 3 1h9l8-4 5-6 2-6v-17l-3-7-4-5-10-4z" fill="#A0266B"/>
<path transform="translate(219,324)" d="m0 0h16l12 6 1 1v5h-5l-10-5h-13l-8 5-4 10v16l2 6 5 6 8 3h13l4-2 1-3v-11l-2-2h-8l-4-2 1-5h18l3 5v18l-2 5-8 4-6 1h-10l-10-4-8-7-5-8-1-4v-16l2-6 6-9 6-5z" fill="#A0266B"/>
<path transform="translate(748,963)" d="m0 0h9l8 5 5 8 1 10-4 8-3 1-1 3-10 5h-6l-8-15-6-12v-5l4-4z" fill="#080504"/>
<path transform="translate(927,809)" d="m0 0 10 1 9 5 4 6 1 4v8l-2 5-7 6-3 2h-9l-8-4-7-8-2-6v-6l6-9 4-3z" fill="#090605"/>
<path transform="translate(995,458)" d="m0 0h15l8 5 4 7v7l-4 9-9 5-5 1h-10l-6-4-4-6-2-9 4-8z" fill="#090605"/>
<path transform="translate(289,948)" d="m0 0 4 1 12 9 8 5 4 2 4 3 11 6 5 2 3 3h6l2 3-1 2 7-2-7-3-17-10-7-4-4-4 5 2 21 12 23 11 15 7 17 7 21 7 20 6 7 2v5l-1 1h-8l-26-8-31-11-30-14-22-12-17-10-13-9-11-8z" fill="#A3256D"/>
<path transform="translate(778,149)" d="m0 0 4 1 1 19 5 2v2l5 1 2-4 6-10 3 1-4 10-10 18-4 5-7-1-10-7-4-6v-6l3-5 5-2h6l-1-2z" fill="#F6EBE5"/>
<path transform="translate(525,120)" d="m0 0h64l1 2 29 3h10l7 3-1 2-31-4-12-1-31-1h-19l-24 1-32 4-25 5-21 5-38 12-22 9-3-1 13-6 40-14 16-4 26-6 21-4 3-1 11-1h10v-2z" fill="#9A2866"/>
<path transform="translate(620 1e3)" d="m0 0 4 1 11 17 8 13-1 4-5-5-2-3-19 2-4 10-3 1 1-8 5-21 4-10z" fill="#F7EEE9"/>
<path transform="translate(957,742)" d="m0 0 10 3 24 11 1 4-6-1-21-10 9 11 6 8v4l-25 1 16 9 7 4v3l-6-1-17-9-10-5-1-3 5-1 13-1h13l-8-10-7-10-3-5z" fill="#F7ECE6"/>
<path transform="translate(748,963)" d="m0 0h9l8 5 5 8 1 10-4 8-3 1-1 3-10 5h-6l-8-15-6-12v-5l4-4zm-1 4-9 5 1 5 8 16 4 5 3 1 8-6 4-5v-10l-6-8-5-3z" fill="#F9F1EC"/>
<path transform="translate(995,458)" d="m0 0h15l8 5 4 7v7l-4 9-9 5-5 1h-10l-6-4-4-6-2-9 4-8zm4 4-7 3-5 6v9l3 5 3 2h15l7-6 2-3v-9l-7-6-2-1z" fill="#F3E9E3"/>
<path transform="translate(927,809)" d="m0 0 10 1 9 5 4 6 1 4v8l-2 5-7 6-3 2h-9l-8-4-7-8-2-6v-6l6-9 4-3zm0 4-6 3-3 5-1 5 4 8 7 6 8 2 6-3 4-5 1-2-1-9-5-5-6-4z" fill="#F6ECE7"/>
<path transform="translate(695,984)" d="m0 0 4 1 4 10 5 17 1 8-5-1-13-9-12-9-3-2 4 9 4 16v4l-4-2-10-32v-2l6 1 12 9 5 3v2l5 2 4 4-2-10-5-15z" fill="#F8EFEA"/>
<path transform="translate(710,518)" d="m0 0h1l2 12v7l-2 3 10 2 2 2v7l-21 8-10 2 1-3 17-7 11-3v-3h-13l-12 2-15 4-36 12-4 1 3-3 23-8 4-2-4-3 1-2 2 2 8-1 20-7 9-3 3-2z" fill="#5C3C34"/>
<path transform="translate(988,390)" d="m0 0h7l6 9 1 4v9l-4 7-9 6-5 1h-9l-8-6-4-8-1-7 3-5h3v11l5 8 3 2h8l8-4 4-6v-11l-4-5h-6l-1 1-1 11h-3l-3-9 1-4z" fill="#F6ECE6"/>
<path transform="translate(887,227)" d="m0 0h2l-1 4-4 2-2 4-4 2 1 4 13 13h3l2-4 8-6h2l-1 5-7 7-8 7-8 8-5 1 2-5 7-7-1-5-9-9-2-3-4 2-6 7-4 1-1-2 14-16 8-7z" fill="#F4EAE4"/>
<path transform="translate(541,1008)" d="m0 0h3v16l22 1v-16l5-1v37h-4l-1-16-22-1 1 16-5 1v-36z" fill="#F9F2EE"/>
<path transform="translate(994,628)" d="m0 0h3l-1 4h-2l-2 5-1 2v7l3 4h5l4-6 5-10 6-3 7 2 4 6-1 11-2 5-3 4h-4l2-6 3-6v-7l-2-3-6 1-3 4-4 9-6 5-7-1-5-6-1-9 3-7z" fill="#F5E8E1"/>
<path transform="translate(834,185)" d="m0 0 5 1 12 9 2 2-1 7-9 11-8 10-2 2-5-1-10-8-4-3v-3l5 1 10 8h3l5-6v-3l-11-9-1-4 6 2 9 8h2l5-7-1-5-10-8z" fill="#F7EDE8"/>
<path transform="translate(979,685)" d="m0 0 3 1v4h-2l-2 16 11 2 2-7 3-9 3-1-1 7-2 7v5l5 2 5-1 4-8 3-8h2l-1 9-5 14-8-1-18-5-8-4-1-4 6-18z" fill="#F7EDE7"/>
<path transform="translate(807,929)" d="m0 0h7l1 3-11 3-6 4-1 5 2 5 10-2 7-2h8l4 5v7l-7 8-7 3h-8v-3l9-2 6-4 2-3v-6h-8l-14 3-5-1-4-6v-6l5-6z" fill="#F5EBE5"/>
<path transform="translate(965,331)" d="m0 0 4 2 9 17-1 4-30 15-3-1-8-16 1-5 4 4 6 12 4-1 7-4-7-14 1-4 5 6 4 7v3l7-3 3-2-1-7-5-11z" fill="#F8EFEA"/>
<path transform="translate(885,860)" d="m0 0h7v2l-9 4-5 6v7l5 8 7 4h9l5-5 4-9h3l-1 8-6 8-7 4-10-1-6-4-6-7-2-6v-7l4-6 6-5z" fill="#F8EFE9"/>
<path transform="translate(481,121)" d="m0 0h6l-1 2-28 5-12 3-8 1v2l-14 3-6 2-7 3-11 2v2l-10 3-8 3h-2v2l-7 2 1 2-9 2v3h-9v3l-8 1-1 3-7 1-1 2-6 3-6 2 3-3 22-12 24-11 28-11 25-8 13-4 28-6z" fill="#9B2867"/>
<path transform="translate(127,415)" d="m0 0 1 4-9 27-8 31-2 10-2 13-2 12-1 14-2 12-1 14-1 36h-1l-1-9v-13l2-38 3-21 3-18 4-19 10-36z" fill="#952A63"/>
<path transform="translate(113,658)" d="m0 0h1l6 28 8 28 7 21 9 21 12 26 12 22 10 16-1 2-6-9-10-17-6-10-11-24-7-15-7-18-6-18-7-26-5-21v-5z" fill="#932A61"/>
<path transform="translate(588,750)" d="m0 0 6 1v43l-1 1h-5l-1-1v-20z"/>
<path transform="translate(764,750)" d="m0 0h6v44l-5 1-1-1z"/>
<path transform="translate(375,324)" d="m0 0h16l8 4 3 5 3 4v6l-2 1-5-9-2-2-11-3-13 1-6 4-3 5-1 5-4 2 1-6h2l1-6 3-3h2l1-3 3-1z" fill="#AB2274"/>
<path transform="translate(678,452)" d="m0 0 9 6 1 2h-2l4 5-1 2-5-5-7-6-4-1v3l10 8 6 9 4 9v4h-4v-3h-2l-7-14-8-9-5-3-5-6 8 1 6-1 2 1z" fill="#5C3C36"/>
<path transform="translate(772,171)" d="m0 0h9l8 6-1 7-4 5-5-1-6-4-3-4v-7z" fill="#0C0807"/>
<path transform="translate(937,288)" d="m0 0h4l-1 4h-2v2l-4 1v2l-13 9-4 3h-2l4 7 2 3v4l-3-1-9-12-2-5-3-1-2-4v-3l4 1 3 5v2l5 1 5-5z" fill="#F5EBE5"/>
<path transform="translate(993,525)" d="m0 0h2l1 5v9l33-2v4l-5 1-27 1v13l-4-1-1-29z" fill="#F7EFE9"/>
<path transform="translate(655,453)" d="m0 0 7 6 9 10 4 5 6 9 3 6-1 3-5-2-7-10-5-9-3-2v-3l-5-1-6-2 3-3z" fill="#5B3C35"/>
<path transform="translate(103,642)" d="m0 0h2l3 12 1 12 10 40 4 13 3 9 10 25 4 9-1 3-10-22-9-25-8-29-5-20-4-23z" fill="#9A2866"/>
<path transform="translate(726,589)" d="m0 0v3 3l-15 6-14 5h-7l1 8 1 3v8l-2-3-3-13v-5l-5 1h-7v-1l25-5 16-5 9-4z" fill="#603E35"/>
<path transform="translate(650,464)" d="m0 0 5 5 7 12 5 12v6l-4-2-9-20v-3h-2v-3l-6-1-2 9 3 10 1 6-2-2-4-10-1-10 8-7z" fill="#5B3D35"/>
<path transform="translate(140,765)" d="m0 0 2 1 5 12 6 11 9 16v3h2l5 9 7 11 6 9 14 19 4 5-1 2-6-7-12-16-17-26-11-19-12-24z" fill="#912B5F"/>
<path transform="translate(962,769)" d="m0 0h2v2l-9 2 16 9 7 4v3l-6-1-17-9-10-5-1-3 5-1z" fill="#FAF3EE"/>
<path transform="translate(621,1010)" d="m0 0 4 2 7 12v3l-5 1h-11l3-15z" fill="#1A110E"/>
<path transform="translate(726,595)" d="m0 0 2 2 7 21 14 40 5 15 2 10h-4l-3-17-8-24-11-30-4-13z" fill="#5B3D35"/>
<path transform="translate(312,327)" d="m0 0 7 1 7 7 1 6v25l-2 3h-2l1-9v-9l-2-11-3-4v-2h-2v-2h-2v-3h-3z" fill="#CE138F"/>
<path transform="translate(654,126)" d="m0 0 9 1 6 2v6h-9l-24-5 1-2 11 1 6-1z" fill="#A3256D"/>
<path transform="translate(705,543)" d="m0 0h17l1 1v7l-21 8-10 2 1-3 17-7 11-3v-3h-13l-11 1 3-2z" fill="#6B4137"/>
<path transform="translate(561,493)" d="m0 0 2 2v7l1 2 7-1 19-8 3 1-5 4-22 10-3 3-1 6h-1v-8l3-4h-2l-1-3z" fill="#9C6752"/>
<path transform="translate(102,513)" d="m0 0h2v13l-2 12-1 14-1 36h-1l-1-9v-13l2-38z" fill="#932B60"/>
<path transform="translate(113,658)" d="m0 0h1l6 28 8 28 2 6-1 4-3-7-5-16-9-37v-5z" fill="#952A63"/>
<path transform="translate(289,948)" d="m0 0 4 1 12 9 8 5 4 2 4 3 11 6 5 2 3 3h6l2 3v3l-5-2-15-8-10-6-14-9-15-11z" fill="#982965"/>
<path transform="translate(724,553)" d="m0 0h1l2 11-5 2-9 4-7 2h-10v-3l15-3 9-4 4-1z" fill="#664036"/>
<path transform="translate(328,184)" d="m0 0 2 1-26 16-15 11-13 10v-3l12-10 4-1v-2l10-6 8-6h2l1-2 8-4z" fill="#972964"/>
<path transform="translate(727,564)" d="m0 0h1v9l-1 2h2l1 2v10l-2 1v-10l-5 1-7 4-9 3h-4v-2l17-8 6-4z" fill="#734437"/>
<path transform="translate(706,691)" d="m0 0 2 1v4l15-2 7-2 14-1-4 3-6 3-15 1h-11l-2-4z" fill="#5B3D35"/>
<path transform="translate(399,329)" d="m0 0 6 5 4 8 1 3v15l-3 9-2-1 1-3v-21l-2-1v-6l-5-6z" fill="#9D2769"/>
<path transform="translate(1018,473)" d="m0 0 3 3-1 6-2 4-9 5h-5v-3l4-2 6-5 3-4z" fill="#FAEBE1"/>
<path transform="translate(110,507)" d="m0 0h1v9l-2 17-1 18h-1l-1-8v-15l2-19z" fill="#942A62"/>
<path transform="translate(601,678)" d="m0 0 1 2-7 12-3 2h-18l-13-4-2-1v-2l12 3 3 1h19z" fill="#6C4237"/>
<path transform="translate(393,332)" d="m0 0 4 1 4 5 4 8v17h-2l-1 5h-2l1-6v-17l-3-7z" fill="#992866"/>
<path transform="translate(206,871)" d="m0 0 4 2 8 9v2h2l7 8 21 21h-3l-30-30-7-9z" fill="#9D2768"/>
<path transform="translate(404,344)" d="m0 0h2l1 3v18l-4 7-4 4-3-1 6-9 2-6z" fill="#D11292"/>
<path transform="translate(591,513)" d="m0 0h5l-3 3-15 6-12 3v-3l17-6z" fill="#AE735B"/>
<path transform="translate(559,505)" d="m0 0 5 2-2 4-1 8h2l1 3 3 2-1 1v10h-2l-2-4v-7l-3-2z" fill="#614236"/>
<path transform="translate(962,778)" d="m0 0 6 2 10 6v3l-6-1-12-6v-3z" fill="#F6E7DF"/>
<path transform="translate(164,349)" d="m0 0 1 2-14 27-8 18-1-4 6-13 8-16z" fill="#9C2868"/>
<path transform="translate(392,327)" d="m0 0 5 1 5 5 3 4v6l-2 1-5-9-8-5z" fill="#D31293"/>
<path transform="translate(654,510)" d="m0 0 2 2 3 8-1 5-2 4 2 6 6 8-4-2-8-8-1-4 5-6-1-7z" fill="#5B3D35"/>
<path transform="translate(481,121)" d="m0 0h6l-1 2-28 5-12 3h-4v-2l28-6z" fill="#9A2866"/>
<path transform="translate(591,531)" d="m0 0h2l-2 4-11 5-12-1-1-4 8 1 12-3z" fill="#976351"/>
<path transform="translate(326,337)" d="m0 0 3 4 1 3v18l-1 4h-2z" fill="#9E2769"/>
<path transform="translate(366,161)" d="m0 0m-8 1h6l1 3-14 7-2-1 1-2h-2v-2l2-1h6v-3z" fill="#D01291"/>
<path transform="translate(590,495)" d="m0 0 3 1-5 4-13 6-3-1-1-2z" fill="#B4795F"/>
<path transform="translate(990,485)" d="m0 0 3 1 11 1v3 2h-10l-4-2v-4z" fill="#F2E1D8"/>
<path transform="translate(604,321)" d="m0 0 9 1 8 6-1 4-4-5-7-3-5 1-8 5v-3z" fill="#8F2C5D"/>
<path transform="translate(356,161)" d="m0 0m-2 1h2v4l-8 1-1 3-7 1-1 2-6 3-6 2 3-3 22-12z" fill="#9A2866"/>
<path transform="translate(109,479)" d="m0 0 1 3-2 15-3 15-2 1 1-14 4-19z" fill="#9A2866"/>
<path transform="translate(115,480)" d="m0 0 1 4-4 23h-2l1-17 1-4h2v-5z" fill="#982964"/>
<path transform="translate(247,236)" d="m0 0v3l-23 23-2-1 15-16 8-7z" fill="#AA2173"/>
<path transform="translate(159,804)" d="m0 0 3 1v3h2l5 9 7 11 2 2-1 4-13-20z" fill="#982965"/>
<path transform="translate(536,355)" d="m0 0 3 1 1 5v9h-4l-1-2z"/>
<path transform="translate(678,452)" d="m0 0 9 6 1 2h-2l4 5-1 2-5-5-7-6z" fill="#65443A"/>
<path transform="translate(540,368)" d="m0 0 1 2h5l1 2 24 1v1h-31l-3-3z" fill="#5C3C35"/>
<path transform="translate(372,327)" d="m0 0h2v3l-8 5-3 5-1 5-4 2 1-6h2l1-6 3-3h2l1-3z" fill="#D31293"/>
<path transform="translate(272,222)" d="m0 0 3 1-11 9-12 11-1-3 7-6 1-2h3l2-4z" fill="#922B60"/>
<path transform="translate(121,698)" d="m0 0h2l7 22-1 4-3-7-5-16z" fill="#992965"/>
<path transform="translate(481,364)" d="m0 0h2l-1 7-7 6-3 1-1-2h2v-2l5-5z" fill="#D31293"/>
<path transform="translate(439,130)" d="m0 0 3 1-4 1v2l-14 3-6 2-6 1 1-2z" fill="#9E2769"/>
<path transform="translate(708,567)" d="m0 0 3 1-1 3-4 1h-10v-3z" fill="#684037"/>
<path transform="translate(371,325)" d="m0 0 2 1-4 4-6 5-2 6-4 1 2-5 6-8z" fill="#9A2866"/>
<path transform="translate(541,1008)" d="m0 0h3v13l-3 2-1-14z" fill="#F9EFE8"/>
<path transform="translate(386,324)" d="m0 0 8 1 5 3-2 1-5-1v2l1 2-8-2z" fill="#9B2867"/>
<path transform="translate(614,125)" d="m0 0h15l7 3-1 2-21-3z" fill="#9C2868"/>
<path transform="translate(996,543)" d="m0 0h1v13l-4-1v-10l3 1z" fill="#F1D7C7"/>
<path transform="translate(110,678)" d="m0 0h2l3 12 2 9v2h-2l-5-19z" fill="#992965"/>
<path transform="translate(472,329)" d="m0 0 4 1 2 1v2h2v2h2l-1 5-3-2v-2h-2l-2-5h-2z" fill="#D31293"/>
<path transform="translate(206,871)" d="m0 0 4 2 8 9v2h2l3 4-1 2-7-7-7-9z" fill="#8F2C5E"/>
<path transform="translate(592,116)" d="m0 0 20 2v2l-19-1z" fill="#962963"/>
<path transform="translate(126,437)" d="m0 0 1 3-4 15-2-2 3-14z" fill="#982964"/>
<path transform="translate(985,479)" d="m0 0 4 2 3 7-3 1-4-5-1-4z" fill="#F7E5D9"/>
<path transform="translate(1018,467)" d="m0 0 3 1 1 2v7l-3-2-2 2v-6z" fill="#EABDA1"/>
<path transform="translate(626,361)" d="m0 0 3 2v5l-4 1-1-7z"/>
<path transform="translate(317,967)" d="m0 0 6 2 10 6v3l-13-8z" fill="#9D2769"/>
<path transform="translate(964,769)" d="m0 0h11l-2 2-5 1h-10v-1h6z" fill="#E1B296"/>
<path transform="translate(591,531)" d="m0 0h2l-2 4-8 3v-2l-2-1z" fill="#A96F58"/>
<path transform="translate(101,530)" d="m0 0 2 1-2 14-2 1 1-15z" fill="#982965"/>
<path transform="translate(339,973)" d="m0 0 6 2 9 5-3 1-11-6z" fill="#A0276B"/>
<path transform="translate(178,833)" d="m0 0 4 4 6 8-1 3-9-13z" fill="#932B61"/>
<path transform="translate(1024,537)" d="m0 0h5v4l-11-1v-1h6z" fill="#F5DFD1"/>
<path transform="translate(604,321)" d="m0 0 2 1v2l-10 6v-3z" fill="#663D39"/>
<path transform="translate(365,157)" d="m0 0h2v2l-2 1v3h-9l3-3z" fill="#A0276B"/>
<path transform="translate(573,797)" d="m0 0 3 1 1 5-5 1-1-3z" fill="#D31293"/>
<path transform="translate(722,544)" d="m0 0h1v7l-7 2v-2l-2-1 7-2z" fill="#6D4038"/>
<path transform="translate(279,358)" d="m0 0 3 3 2 8-4-1-1-3z" fill="#D11291"/>
</svg>
